# xmcd
#
# Track frame offsets:
#	150
#	19484
#	36247
#	56232
#	80753
#	103187
#	121027
#	137151
#	163062
#	183936
#	200954
#	215630
#	232274
#	254474
#	273329
#	294724
#
# Disc length: 4124 seconds
#
# Revision: 0
# Processed by: cddbd v1.5.2PL0 Copyright (c) Steve Scherf et al.
# Submitted via: EasyCDDAExtractor 10.0.3.1
#
DISCID=06101a10
DTITLE=ROBERT :THE JUICE" LENOIR - THE SUPERMAN LOVER
DYEAR=2005
DGENRE=Soul
TTITLE0=YOU CAN WALK
TTITLE1=PUT UP OR SHUT UP
TTITLE2=SUPERMAN LOVER
TTITLE3=I CAN`T TRUST YOU NO MORE
TTITLE4=WE STARTED TOGETHER
TTITLE5=THE GREASE IN THE SKILLY
TTITLE6=STOP and THINK ABOUT IT
TTITLE7=JUMP START YOUR LOVE
TTITLE8=THERE IS NO TIME TO CRY THE BLUES
TTITLE9=A SUN SHINY DAY
TTITLE10=NEVER LEAVE YOUR WOMAN ALONE
TTITLE11=SINCE YOU LEFT ME BABY
TTITLE12=THE LOVE WE HAD IS GONE
TTITLE13=TRYING TO FIGURE YOU OUT
TTITLE14=STAND BY ME
TTITLE15=GO DOWN LOW
EXTD=
EXTT0=
EXTT1=
EXTT2=
EXTT3=
EXTT4=
EXTT5=
EXTT6=
EXTT7=
EXTT8=
EXTT9=
EXTT10=
EXTT11=
EXTT12=
EXTT13=
EXTT14=
EXTT15=
PLAYORDER=
